<svg xmlns="http://www.w3.org/2000/svg" viewBox="0 0 500 500"><g id="freepik--background-complete--inject-141"><rect y="382.4" width="500" height="0.25" style="fill:#ebebeb"></rect><rect x="416.78" y="398.49" width="33.12" height="0.25" style="fill:#ebebeb"></rect><rect x="322.53" y="401.21" width="8.69" height="0.25" style="fill:#ebebeb"></rect><rect x="396.59" y="389.21" width="19.19" height="0.25" style="fill:#ebebeb"></rect><rect x="52.46" y="390.89" width="43.19" height="0.25" style="fill:#ebebeb"></rect><rect x="104.56" y="390.89" width="6.33" height="0.25" style="fill:#ebebeb"></rect><rect x="131.47" y="395.11" width="93.68" height="0.25" style="fill:#ebebeb"></rect><path d="M237,337.8H43.91a5.71,5.71,0,0,1-5.7-5.71V60.66A5.71,5.71,0,0,1,43.91,55H237a5.71,5.71,0,0,1,5.71,5.71V332.09A5.71,5.71,0,0,1,237,337.8ZM43.91,55.2a5.46,5.46,0,0,0-5.45,5.46V332.09a5.46,5.46,0,0,0,5.45,5.46H237a5.47,5.47,0,0,0,5.46-5.46V60.66A5.47,5.47,0,0,0,237,55.2Z" style="fill:#ebebeb"></path><path d="M453.31,337.8H260.21a5.72,5.72,0,0,1-5.71-5.71V60.66A5.72,5.72,0,0,1,260.21,55h193.1A5.71,5.71,0,0,1,459,60.66V332.09A5.71,5.71,0,0,1,453.31,337.8ZM260.21,55.2a5.47,5.47,0,0,0-5.46,5.46V332.09a5.47,5.47,0,0,0,5.46,5.46h193.1a5.47,5.47,0,0,0,5.46-5.46V60.66a5.47,5.47,0,0,0-5.46-5.46Z" style="fill:#ebebeb"></path><rect x="412.7" y="113.73" width="5.24" height="110.17" style="fill:#e0e0e0"></rect><rect x="315.29" y="113.73" width="99.62" height="110.17" transform="translate(730.21 337.64) rotate(180)" style="fill:#e0e0e0"></rect><rect x="312.11" y="113.73" width="103.32" height="110.17" transform="translate(727.55 337.64) rotate(180)" style="fill:#f0f0f0"></rect><rect x="316.48" y="117.25" width="94.74" height="101.6" transform="translate(727.71 336.1) rotate(180)" style="fill:#fff"></rect><rect x="316.48" y="117.25" width="2.74" height="101.6" transform="translate(635.71 336.1) rotate(180)" style="fill:#e0e0e0"></rect><rect x="363.83" y="145.41" width="2.74" height="92.54" transform="translate(173.52 556.88) rotate(-90)" style="fill:#e0e0e0"></rect><rect x="316.48" y="185.71" width="96.21" height="4.6" transform="translate(729.18 376.02) rotate(180)" style="fill:#f0f0f0"></rect><rect x="63.05" y="183.09" width="156.54" height="198.22" style="fill:#f0f0f0"></rect><rect x="68.59" y="190.31" width="145.47" height="42.39" style="fill:#e0e0e0"></rect><rect x="68.59" y="197.17" width="8.26" height="35.52" style="fill:#ebebeb"></rect><rect x="108.55" y="197.17" width="8.26" height="35.52" style="fill:#ebebeb"></rect><rect x="156.98" y="196.73" width="8.26" height="35.52" transform="translate(-34.09 30.48) rotate(-9.78)" style="fill:#ebebeb"></rect><rect x="78.83" y="201.85" width="8.26" height="30.84" style="fill:#ebebeb"></rect><rect x="97.82" y="201.85" width="8.26" height="30.84" style="fill:#ebebeb"></rect><rect x="145.76" y="201.85" width="8.26" height="30.84" style="fill:#ebebeb"></rect><rect x="122.84" y="201.33" width="8.26" height="30.84" transform="translate(-43.99 32.7) rotate(-12.53)" style="fill:#ebebeb"></rect><rect x="90.1" y="195.41" width="4.13" height="37.29" style="fill:#ebebeb"></rect><rect x="139.26" y="195.41" width="4.13" height="37.29" style="fill:#ebebeb"></rect><rect x="68.59" y="239.41" width="145.47" height="42.39" transform="translate(282.64 521.2) rotate(180)" style="fill:#e0e0e0"></rect><rect x="205.79" y="246.27" width="8.26" height="35.52" transform="translate(419.85 528.07) rotate(180)" style="fill:#ebebeb"></rect><rect x="165.84" y="246.27" width="8.26" height="35.52" transform="translate(339.94 528.07) rotate(180)" style="fill:#ebebeb"></rect><rect x="117.4" y="245.83" width="8.26" height="35.52" transform="matrix(-0.99, -0.17, 0.17, -0.99, 196.52, 543.99)" style="fill:#ebebeb"></rect><rect x="195.55" y="250.95" width="8.26" height="30.84" transform="translate(399.37 532.75) rotate(180)" style="fill:#ebebeb"></rect><rect x="176.56" y="250.95" width="8.26" height="30.84" transform="translate(361.38 532.75) rotate(180)" style="fill:#ebebeb"></rect><rect x="128.62" y="250.95" width="8.26" height="30.84" transform="translate(265.5 532.75) rotate(180)" style="fill:#ebebeb"></rect><rect x="151.54" y="250.42" width="8.26" height="30.84" transform="translate(249.97 559.13) rotate(-167.47)" style="fill:#ebebeb"></rect><rect x="188.41" y="244.51" width="4.13" height="37.29" transform="translate(380.95 526.3) rotate(180)" style="fill:#ebebeb"></rect><rect x="139.26" y="244.51" width="4.13" height="37.29" transform="translate(282.64 526.3) rotate(180)" style="fill:#ebebeb"></rect><rect x="68.59" y="246.27" width="8.26" height="35.52" style="fill:#ebebeb"></rect><rect x="78.83" y="250.95" width="8.26" height="30.84" style="fill:#ebebeb"></rect><rect x="97.82" y="250.95" width="8.26" height="30.84" style="fill:#ebebeb"></rect><rect x="90.1" y="244.51" width="4.13" height="37.29" style="fill:#ebebeb"></rect><rect x="68.59" y="288.51" width="145.47" height="42.39" style="fill:#e0e0e0"></rect><rect x="152.08" y="295.37" width="8.26" height="35.52" style="fill:#ebebeb"></rect><rect x="200.52" y="294.93" width="8.26" height="35.52" transform="translate(-50.13 39.3) rotate(-9.78)" style="fill:#ebebeb"></rect><rect x="122.36" y="300.05" width="8.26" height="30.84" style="fill:#ebebeb"></rect><rect x="141.36" y="300.05" width="8.26" height="30.84" style="fill:#ebebeb"></rect><rect x="189.3" y="300.05" width="8.26" height="30.84" style="fill:#ebebeb"></rect><rect x="166.38" y="299.52" width="8.26" height="30.84" transform="translate(-64.26 44.48) rotate(-12.53)" style="fill:#ebebeb"></rect><rect x="133.64" y="293.61" width="4.13" height="37.29" style="fill:#ebebeb"></rect><rect x="182.79" y="293.61" width="4.13" height="37.29" style="fill:#ebebeb"></rect><rect x="105.45" y="294.93" width="8.26" height="35.52" transform="translate(-51.51 23.15) rotate(-9.78)" style="fill:#ebebeb"></rect><rect x="94.23" y="300.05" width="8.26" height="30.84" style="fill:#ebebeb"></rect><rect x="71.31" y="299.52" width="8.26" height="30.84" transform="translate(-66.52 23.86) rotate(-12.53)" style="fill:#ebebeb"></rect><rect x="87.72" y="293.61" width="4.13" height="37.29" style="fill:#ebebeb"></rect><path d="M315.2,263h88.22a17.33,17.33,0,0,1,17.32,17.32V349.2H297.88V280.31A17.32,17.32,0,0,1,315.2,263Z" style="fill:#e6e6e6"></path><path d="M271.79,314h15.79a10.3,10.3,0,0,1,10.3,10.3v57H261.5v-57A10.3,10.3,0,0,1,271.79,314Z" style="fill:#e0e0e0"></path><path d="M271.79,314h.34a10.3,10.3,0,0,1,10.29,10.3v57H261.5v-57A10.3,10.3,0,0,1,271.79,314Z" style="fill:#ebebeb"></path><rect x="286.83" y="355.14" width="121.06" height="26.17" style="fill:#e6e6e6"></rect><rect x="276.19" y="331.21" width="137.69" height="27.45" rx="10.47" style="fill:#f5f5f5"></rect><rect x="378.27" y="331.21" width="35.41" height="27.45" rx="10.47" style="fill:#e0e0e0;isolation:isolate"></rect><path d="M404.78,314h15.79a10.3,10.3,0,0,1,10.29,10.3v57H394.49v-57A10.29,10.29,0,0,1,404.78,314Z" style="fill:#e0e0e0"></path><path d="M404.78,314h.33a10.3,10.3,0,0,1,10.3,10.3v57H394.49v-57A10.29,10.29,0,0,1,404.78,314Z" style="fill:#f0f0f0"></path><circle cx="241.37" cy="115.22" r="18.22" transform="translate(-10.77 204.42) rotate(-45)" style="fill:#e0e0e0"></circle><circle cx="241.37" cy="115.22" r="15.5" transform="translate(-12.27 30.35) rotate(-7.02)" style="fill:#f0f0f0"></circle><polyline points="242.1 104.59 242.1 115.42 249.28 111.36" style="fill:#f0f0f0"></polyline><path d="M242.1,116.19a.76.76,0,0,1-.77-.77V104.59a.77.77,0,0,1,.77-.78.78.78,0,0,1,.78.78v9.5l6-3.41a.77.77,0,0,1,.76,1.35l-7.18,4.06A.75.75,0,0,1,242.1,116.19Z" style="fill:#e0e0e0"></path></g><g id="freepik--Shadow--inject-141"><ellipse id="freepik--path--inject-141" cx="250" cy="416.24" rx="193.89" ry="11.32" style="fill:#f5f5f5"></ellipse></g><g id="freepik--Book--inject-141"><rect x="180.96" y="157.03" width="155.64" height="259.47" style="fill:#9C0714"></rect><rect x="180.96" y="157.03" width="155.64" height="259.47" style="fill:#fff;opacity:0.5"></rect><rect x="160.71" y="157.03" width="155.64" height="259.47" style="fill:#9C0714"></rect><rect x="160.71" y="157.03" width="155.64" height="259.47" style="fill:#fff;opacity:0.7000000000000001"></rect><g style="opacity:0.2"><polygon points="321.08 157 320.59 289.55 320.11 157 321.08 157"></polygon><polygon points="325.26 157 324.78 303.02 324.3 157 325.26 157"></polygon><polygon points="334.24 157 333.76 224.32 333.28 157 334.24 157"></polygon><polygon points="324.3 415.57 324.78 324.85 325.26 415.57 324.3 415.57"></polygon><polygon points="328.7 416.54 329.19 237.44 329.67 416.54 328.7 416.54"></polygon><polygon points="333.28 415.57 333.76 329.04 334.24 415.57 333.28 415.57"></polygon><polygon points="329.67 157 329.19 215.67 328.7 157 329.67 157"></polygon><polygon points="320.11 416.04 320.59 314.4 321.08 416.04 320.11 416.04"></polygon></g><path d="M153.65,194.06H168a0,0,0,0,1,0,0v40.79a0,0,0,0,1,0,0H153.65a1.31,1.31,0,0,1-1.31-1.31V195.38A1.31,1.31,0,0,1,153.65,194.06Z" style="fill:#263238"></path><path d="M168.58,226.85a.48.48,0,0,1-.48-.48v-4.6l-19.9-4.15a4.05,4.05,0,0,1-3.25,1.7,4.9,4.9,0,0,1,0-9.73,4.06,4.06,0,0,1,3.25,1.71l19.9-4.16v-3.77a.49.49,0,0,1,.48-.48.48.48,0,0,1,.48.48v4.16a.49.49,0,0,1-.38.48l-20.6,4.29a.47.47,0,0,1-.5-.2,3.16,3.16,0,0,0-2.63-1.54,3.95,3.95,0,0,0,0,7.8,3.16,3.16,0,0,0,2.63-1.54.48.48,0,0,1,.5-.21l20.6,4.3a.48.48,0,0,1,.38.47v5A.47.47,0,0,1,168.58,226.85Z" style="fill:#9C0714"></path><path d="M169.19,193.94v11.29h-1.78V193.94a.89.89,0,0,1,.89-.89h0A.89.89,0,0,1,169.19,193.94Z" style="fill:#263238"></path><rect x="167.41" y="209.9" width="1.78" height="9.12" style="fill:#263238"></rect><path d="M167.41,223.69h1.78V235a.89.89,0,0,1-.89.89h0a.89.89,0,0,1-.89-.89Z" style="fill:#263238"></path><path d="M153.65,338.68H168a0,0,0,0,1,0,0v40.79a0,0,0,0,1,0,0H153.65a1.31,1.31,0,0,1-1.31-1.31V340A1.31,1.31,0,0,1,153.65,338.68Z" style="fill:#263238"></path><path d="M168.58,371.47a.48.48,0,0,1-.48-.48v-4.6l-19.9-4.15a4.05,4.05,0,0,1-3.25,1.7,4.9,4.9,0,0,1,0-9.73,4.06,4.06,0,0,1,3.25,1.71l19.9-4.16V348a.49.49,0,0,1,.48-.48.48.48,0,0,1,.48.48v4.17a.49.49,0,0,1-.38.47l-20.6,4.3a.5.5,0,0,1-.5-.21,3.16,3.16,0,0,0-2.63-1.54,3.95,3.95,0,0,0,0,7.8,3.16,3.16,0,0,0,2.63-1.54.48.48,0,0,1,.5-.21l20.6,4.3a.48.48,0,0,1,.38.47v5A.47.47,0,0,1,168.58,371.47Z" style="fill:#9C0714"></path><path d="M169.19,338.56v11.29h-1.78V338.56a.89.89,0,0,1,.89-.89h0A.89.89,0,0,1,169.19,338.56Z" style="fill:#263238"></path><rect x="167.41" y="354.52" width="1.78" height="9.12" style="fill:#263238"></rect><path d="M167.41,368.31h1.78V379.6a.89.89,0,0,1-.89.89h0a.89.89,0,0,1-.89-.89Z" style="fill:#263238"></path><rect x="181.26" y="201.37" width="62.18" height="47.64" style="opacity:0.2"></rect><polygon points="181.26 242.53 201.13 226.15 212.35 236.43 231.24 220.46 243.44 232.01 243.44 249.01 181.26 249.01 181.26 242.53" style="fill:#fff;opacity:0.4"></polygon><circle cx="195.41" cy="215.16" r="5.65" style="fill:#fff;opacity:0.4"></circle><rect x="181.26" y="172.01" width="121.39" height="20.07" style="opacity:0.2"></rect><rect x="251.06" y="201.37" width="51.59" height="2.66" style="opacity:0.2"></rect><rect x="251.06" y="208.83" width="51.59" height="2.66" style="opacity:0.2"></rect><rect x="251.06" y="216.28" width="51.59" height="2.66" style="opacity:0.2"></rect><rect x="251.06" y="223.73" width="51.59" height="2.66" style="opacity:0.2"></rect><rect x="251.06" y="231.19" width="51.59" height="2.66" style="opacity:0.2"></rect><rect x="251.06" y="238.64" width="51.59" height="2.66" style="opacity:0.2"></rect><rect x="251.06" y="246.36" width="51.59" height="2.66" style="opacity:0.2"></rect><rect x="181.26" y="259.84" width="121.39" height="2.66" style="opacity:0.2"></rect><rect x="181.26" y="266.94" width="121.39" height="2.66" style="opacity:0.2"></rect><rect x="181.26" y="274.04" width="121.39" height="2.66" style="opacity:0.2"></rect><rect x="181.26" y="281.14" width="121.39" height="2.66" style="opacity:0.2"></rect><rect x="181.26" y="288.24" width="121.39" height="2.66" style="opacity:0.2"></rect><rect x="181.26" y="295.34" width="121.39" height="2.66" style="opacity:0.2"></rect><rect x="240.47" y="307.42" width="62.18" height="47.64" style="opacity:0.2"></rect><polygon points="240.47 348.59 260.34 332.2 271.56 342.49 290.45 326.52 302.65 338.07 302.65 355.07 240.47 355.07 240.47 348.59" style="fill:#fff;opacity:0.4"></polygon><path d="M260.28,321.21a5.66,5.66,0,1,1-5.66-5.65A5.66,5.66,0,0,1,260.28,321.21Z" style="fill:#fff;opacity:0.4"></path><rect x="181.26" y="307.42" width="51.59" height="2.66" transform="translate(414.1 617.51) rotate(180)" style="opacity:0.2"></rect><rect x="181.26" y="314.89" width="51.59" height="2.66" transform="translate(414.1 632.43) rotate(180)" style="opacity:0.2"></rect><rect x="181.26" y="322.34" width="51.59" height="2.66" transform="translate(414.1 647.33) rotate(180)" style="opacity:0.2"></rect><rect x="181.26" y="329.79" width="51.59" height="2.66" transform="translate(414.1 662.23) rotate(180)" style="opacity:0.2"></rect><rect x="181.26" y="337.24" width="51.59" height="2.66" transform="translate(414.1 677.14) rotate(180)" style="opacity:0.2"></rect><rect x="181.26" y="344.69" width="51.59" height="2.66" transform="translate(414.1 692.04) rotate(180)" style="opacity:0.2"></rect><rect x="181.26" y="352.41" width="51.59" height="2.66" transform="translate(414.1 707.48) rotate(180)" style="opacity:0.2"></rect><rect x="181.26" y="364.93" width="121.39" height="2.66" style="opacity:0.2"></rect><rect x="181.26" y="372.03" width="121.39" height="2.66" style="opacity:0.2"></rect><rect x="181.26" y="379.13" width="121.39" height="2.66" style="opacity:0.2"></rect><rect x="181.26" y="386.23" width="121.39" height="2.66" style="opacity:0.2"></rect><rect x="181.26" y="393.33" width="121.39" height="2.66" style="opacity:0.2"></rect><rect x="181.26" y="400.43" width="121.39" height="2.66" style="opacity:0.2"></rect><path d="M191.9,268c-7.34,0-13.6-1.36-15.56-5.06a4.48,4.48,0,0,1,1.2-6c7.92-6.61,41.53-5.24,47.14-.83a1,1,0,1,1-1.19,1.51c-4.88-3.83-37.6-5.14-44.72.8a2.57,2.57,0,0,0-.72,3.59c2.11,4,12.82,5.17,26.64,2.91,13-2.13,22.16-6.23,22.57-8.74.12-.76-.87-1.46-1.72-1.91a1,1,0,1,1,.9-1.7c2.56,1.35,2.89,2.88,2.72,3.92-.74,4.5-13,8.51-24.16,10.33A83.73,83.73,0,0,1,191.9,268Z" style="fill:#9C0714"></path><path d="M306.24,372.63a1,1,0,0,1-.62-.22l-12.68-10.63a1,1,0,1,1,1.24-1.47l12.68,10.62a1,1,0,0,1,.12,1.36A.94.94,0,0,1,306.24,372.63Z" style="fill:#9C0714"></path><path d="M296.1,373.13a1,1,0,0,1-.72-1.6,68.4,68.4,0,0,0,9.81-14.27,1,1,0,1,1,1.72.88,70.57,70.57,0,0,1-10.09,14.67A.93.93,0,0,1,296.1,373.13Z" style="fill:#9C0714"></path><path d="M179,388.86a1,1,0,0,1-.75-.36,10.39,10.39,0,0,1-2-4.11,1,1,0,0,1,.7-1.16,1,1,0,0,1,1.17.7,8.47,8.47,0,0,0,.86,2.17,41.53,41.53,0,0,1,7.56-9.11,1,1,0,0,1,1.36.07,1,1,0,0,1-.07,1.36,39.64,39.64,0,0,0-7.95,9.95,1,1,0,0,1-.76.49Z" style="fill:#9C0714"></path><path d="M250.25,227.56h-.12l-2.29-.3A1.9,1.9,0,0,1,246,225.7a19.74,19.74,0,0,1-.53-5.64l0-17.9a1,1,0,0,1,.35-.75,1,1,0,0,1,.8-.19l1.5.3a1,1,0,0,1-.39,1.89l-.34-.07,0,16.73a18.34,18.34,0,0,0,.45,5.09l0,.15.2,0,2.29.3a1,1,0,0,1-.13,1.92Z" style="fill:#9C0714"></path><path d="M241.37,208.46h-.05c-4.12-.23-8.29-.36-12.41-.38a1,1,0,0,1-1-1,1,1,0,0,1,1-1c4.15,0,8.36.16,12.5.39a1,1,0,0,1,0,1.92Z" style="fill:#9C0714"></path><path d="M232.23,212a1,1,0,0,1-.22-1.9,23.46,23.46,0,0,1,7.33-.18c.69.06,1.39.12,2.08.16a1,1,0,0,1,.91,1,1,1,0,0,1-1,.91c-.72,0-1.43-.1-2.14-.16a21.51,21.51,0,0,0-6.72.14Z" style="fill:#9C0714"></path><path d="M241.37,215.54h-.16a17.59,17.59,0,0,0-3.06-.09,19,19,0,0,1-3.42-.12,1,1,0,0,1,.32-1.9,17.52,17.52,0,0,0,3.06.09,19,19,0,0,1,3.42.12,1,1,0,0,1-.16,1.91Z" style="fill:#9C0714"></path><path d="M228.4,219.16a1,1,0,0,1-1-.94,1,1,0,0,1,.94-1l13-.28a1,1,0,0,1,0,1.93l-13,.28Z" style="fill:#9C0714"></path><path d="M241.37,222.6h-6.61a1,1,0,0,1,0-1.92h6.61a1,1,0,0,1,0,1.92Z" style="fill:#9C0714"></path><path d="M221.57,332h-.37c-13.34-.06-26.75-1.86-39.72-3.61-1.24-.17-3.13-.42-4.31-1.78a4.55,4.55,0,0,1-.4-5,7.48,7.48,0,0,1,3.5-3.16c3.54-1.74,7.57-1.71,11.13-1.7,7.09,0,14.42.07,21.7.26,6.27.17,12.33.55,17.6,3.35a1,1,0,1,1-.91,1.7c-4.9-2.6-10.71-3-16.74-3.12-7.26-.2-14.58-.23-21.66-.26-3.35,0-7.14,0-10.27,1.5a5.57,5.57,0,0,0-2.64,2.32,2.64,2.64,0,0,0,.14,2.85,5,5,0,0,0,3.12,1.13c12.91,1.74,26.25,3.54,39.47,3.59,3.26,0,7-.13,9.71-2a6.85,6.85,0,0,0,2.87-4.47,4.2,4.2,0,0,0-.75-3.31,1,1,0,0,1,.16-1.36,1,1,0,0,1,1.35.17,6.09,6.09,0,0,1,1.14,4.8,8.83,8.83,0,0,1-3.69,5.77C228.91,331.76,225,332,221.57,332Z" style="fill:#9C0714"></path><path d="M296.6,408.46c-5.24,0-10.73-.35-15.88-2.28-.67-.25-2.73-1-3-2.91-.2-1.46.8-2.85,2.75-3.81,6.1-3,13.13-3,19.38-2.82a16.91,16.91,0,0,0-3.32-1.14,1,1,0,1,1,.44-1.88,19.32,19.32,0,0,1,6.83,3.1c1.46,1,3.87,3.25,3.59,6.18a6,6,0,0,1-3.87,4.72,14.86,14.86,0,0,1-5.65.84Zm-.42-9.94c-5,0-10.28.4-14.85,2.66-.88.44-1.78,1.15-1.69,1.82s1,1.09,1.76,1.38c5.27,2,11,2.2,16.46,2.15a13.09,13.09,0,0,0,4.93-.69,4.09,4.09,0,0,0,2.69-3.13c.2-2-1.89-3.77-2.79-4.42-.47-.33-.94-.64-1.44-.93a.86.86,0,0,1,0,.28.93.93,0,0,1-1,.94C299,398.55,297.58,398.52,296.18,398.52Z" style="fill:#9C0714"></path></g><g id="freepik--speech-bubble-2--inject-141"><path d="M382,106.61h-27.4a8.44,8.44,0,0,0-8.44,8.44v23.84a8.44,8.44,0,0,0,8.44,8.44h10.84l2.86,7.52,2.86-7.52H382a8.43,8.43,0,0,0,8.43-8.44V115.05A8.43,8.43,0,0,0,382,106.61Z" style="fill:#9C0714"></path><path d="M382,106.61h-27.4a8.44,8.44,0,0,0-8.44,8.44v23.84a8.44,8.44,0,0,0,8.44,8.44h10.84l2.86,7.52,2.86-7.52H382a8.43,8.43,0,0,0,8.43-8.44V115.05A8.43,8.43,0,0,0,382,106.61Z" style="fill:#fff;opacity:0.7000000000000001"></path><path d="M381.92,126.87a13.6,13.6,0,1,1-13.6-13.6A13.59,13.59,0,0,1,381.92,126.87Z" style="fill:#9C0714"></path><path d="M369.25,133.88v2.2h-1.61V133.9a8.61,8.61,0,0,1-4.8-1.62l.88-2a7.58,7.58,0,0,0,3.92,1.49v-3.92c-2.17-.53-4.51-1.24-4.51-4,0-2,1.46-3.75,4.51-4v-2.22h1.61v2.18a8.5,8.5,0,0,1,4,1.19l-.8,2a8.11,8.11,0,0,0-3.18-1v4c2.18.52,4.55,1.21,4.55,3.94C373.8,131.84,372.33,133.57,369.25,133.88Zm-1.61-8.39V122c-1.39.22-2,.93-2,1.79S366.51,125.16,367.64,125.49Zm3.65,4.53c0-1-.86-1.41-2-1.74v3.47C370.68,131.53,371.29,130.86,371.29,130Z" style="fill:#fff"></path></g><g id="freepik--speech-bubble-1--inject-141"><path d="M139.6,137.63H112.2a8.43,8.43,0,0,0-8.43,8.44v23.84a8.43,8.43,0,0,0,8.43,8.44H123l2.86,7.52,2.86-7.52H139.6a8.44,8.44,0,0,0,8.44-8.44V146.07A8.44,8.44,0,0,0,139.6,137.63Z" style="fill:#9C0714"></path><path d="M139.6,137.63H112.2a8.43,8.43,0,0,0-8.43,8.44v23.84a8.43,8.43,0,0,0,8.43,8.44H123l2.86,7.52,2.86-7.52H139.6a8.44,8.44,0,0,0,8.44-8.44V146.07A8.44,8.44,0,0,0,139.6,137.63Z" style="fill:#fff;opacity:0.7000000000000001"></path><circle cx="125.9" cy="157.88" r="13.6" transform="translate(-23.66 22.21) rotate(-9.22)" style="fill:#9C0714"></circle><path d="M124.47,164a1.26,1.26,0,0,1-1-.44l-5.33-6.29a1.25,1.25,0,1,1,1.9-1.61l4.38,5.16,7.24-8.53a1.25,1.25,0,0,1,1.91,1.62l-8.19,9.65A1.26,1.26,0,0,1,124.47,164Z" style="fill:#fff"></path></g><g id="freepik--character-2--inject-141"><path d="M364.16,201.54c-6.83,1.43-14.11,28.87-14.11,28.87l6.1,6.58,10.91-20Z" style="fill:#263238"></path><path d="M367.06,217l-.23.43-9.12,16.72L356.15,237l-6.1-6.59s7.27-27.42,14.1-28.87Z" style="fill:#fff;opacity:0.2"></path><path d="M366.83,217.4l-9.12,16.72c0-.28,0-.58,0-.91.82-12.72,7.91-19.43,7.91-19.43A12.4,12.4,0,0,1,366.83,217.4Z" style="opacity:0.1"></path><path d="M415,271.53s-20.93-5.56-46.31,2.6c0,0-4.08-53.16-3.59-60.47s39.17-5.16,39.17-5.16,1,21.28,3.49,34.11S416.26,269.06,415,271.53Z" style="fill:#263238"></path><path d="M415,271.53s-20.93-5.56-46.31,2.6c0,0-4.08-53.16-3.59-60.47s39.17-5.16,39.17-5.16,1,21.28,3.49,34.11S416.26,269.06,415,271.53Z" style="opacity:0.2"></path><polygon points="356.43 409.71 363.26 411.64 364.89 401.01 365.76 395.33 358.93 393.39 357.77 401.01 356.43 409.71" style="fill:#e4897b"></polygon><polygon points="395.7 410.27 402.74 411.2 402.81 401.01 402.86 394.68 395.8 393.76 395.76 401.01 395.7 410.27" style="fill:#e4897b"></polygon><polygon points="395.8 393.76 395.76 401.01 402.81 401.01 402.86 394.68 395.8 393.76" style="opacity:0.2"></polygon><polygon points="357.77 401.01 364.89 401.01 365.76 395.33 358.93 393.39 357.77 401.01" style="opacity:0.2"></polygon><path d="M356.52,408.64l7.75-.21a.63.63,0,0,1,.62.47l1.63,6.25a1,1,0,0,1-1,1.28c-2.8,0-6.85,0-10.37.07-4.11.11-6.72-.09-11.55,0-2.91.08-3.83-2.84-2.62-3.13,5.52-1.36,9.12-1.09,13.82-4.17A3.32,3.32,0,0,1,356.52,408.64Z" style="fill:#263238"></path><path d="M355.85,409.64h0c-1.14.26-3.16.6-4-.07a.94.94,0,0,1-.35-.81.53.53,0,0,1,.26-.45c.85-.51,3.75.86,4.08,1a.16.16,0,0,1,.1.17A.18.18,0,0,1,355.85,409.64ZM352,408.57l-.06,0a.18.18,0,0,0-.1.18.6.6,0,0,0,.22.53c.45.38,1.62.41,3.18.11C354.12,408.92,352.55,408.37,352,408.57Z" style="fill:#9C0714"></path><path d="M355.85,409.64h-.12c-.87-.36-2.63-1.85-2.52-2.65,0-.19.14-.42.61-.48a1.21,1.21,0,0,1,.94.26,4.79,4.79,0,0,1,1.2,2.69.17.17,0,0,1-.07.16Zm-2.16-2.76c-.14.05-.15.13-.15.15-.06.49,1.14,1.66,2,2.16a4,4,0,0,0-1-2.16.88.88,0,0,0-.69-.19A.61.61,0,0,0,353.69,406.88Z" style="fill:#9C0714"></path><path d="M396,408.64l7.76-.21a.63.63,0,0,1,.62.47l1.63,6.25a1,1,0,0,1-1,1.28c-2.8,0-6.85,0-10.36.07-4.12.11-6.73-.09-11.55,0-2.92.08-3.83-2.84-2.62-3.13,5.51-1.36,9.11-1.09,13.81-4.17A3.35,3.35,0,0,1,396,408.64Z" style="fill:#263238"></path><path d="M395.32,409.64h0c-1.13.26-3.16.6-4-.07a1,1,0,0,1-.35-.81.52.52,0,0,1,.27-.45c.84-.51,3.75.86,4.08,1a.17.17,0,0,1,.09.17A.17.17,0,0,1,395.32,409.64Zm-3.84-1.07-.06,0a.18.18,0,0,0-.1.18.6.6,0,0,0,.22.53c.45.38,1.63.41,3.18.11C393.58,408.92,392,408.37,391.48,408.57Z" style="fill:#9C0714"></path><path d="M395.32,409.64h-.13c-.87-.36-2.62-1.85-2.52-2.65,0-.19.15-.42.61-.48a1.2,1.2,0,0,1,.94.26,4.79,4.79,0,0,1,1.2,2.69.17.17,0,0,1-.06.16Zm-2.17-2.76a.22.22,0,0,0-.15.15c-.06.49,1.14,1.66,2,2.16a4,4,0,0,0-1-2.16.9.9,0,0,0-.7-.19Z" style="fill:#9C0714"></path><path d="M410.22,255.45c3.73,16.18-2.67,143.39-2.67,143.39H395.18l-5.29-106-19.48,106-13.22-1c8.64-82.13,16.28-131.16,16.28-131.16l0-6.2Z" style="fill:#263238"></path><path d="M403.56,195.55a154.26,154.26,0,0,0,.59,23.19c.51,5.38,1.23,10.47,2,15.06,1.78,10.77,3.8,18.83,4.08,21.65l-36.77,5.07c-13.41-37.49-8.36-57.39-8.36-57.39l8.43-4.8s1.23-.33,1.86-.48A137.94,137.94,0,0,1,391,195.7c1-.09,2-.16,3-.2C399,195.27,403.56,195.55,403.56,195.55Z" style="fill:#9C0714"></path><g style="opacity:0.7000000000000001"><path d="M403.56,195.55a154.26,154.26,0,0,0,.59,23.19c.51,5.38,1.23,10.47,2,15.06,1.78,10.77,3.8,18.83,4.08,21.65l-36.77,5.07c-13.41-37.49-8.36-57.39-8.36-57.39l8.43-4.8s1.23-.33,1.86-.48A137.94,137.94,0,0,1,391,195.7c1-.09,2-.16,3-.2C399,195.27,403.56,195.55,403.56,195.55Z" style="fill:#fff"></path></g><path d="M389.72,195.52s-8.43,6.66-11,6.63c-1.78,0-4.36-2.93-4.36-2.93a7.6,7.6,0,0,0,2.78-2.23c1.76-2.41.74-5.34-.69-8l7.39-10.28a49.57,49.57,0,0,0,1,7.45h0C385.66,190.14,387.16,194.05,389.72,195.52Z" style="fill:#e4897b"></path><path d="M384.83,186.13h0c-.77,4.5-2.74,9.68-7.66,10.85,1.76-2.41.74-5.34-.69-8l7.39-10.28A49.57,49.57,0,0,0,384.83,186.13Z" style="opacity:0.2"></path><path d="M362.77,174.59c-.3,2.78,1.23,8.07,4.54,5.59S363.29,169.8,362.77,174.59Z" style="fill:#263238"></path><path d="M382.34,174.35c1.75,6.65,3.12,10.45.91,14.85-3.31,6.62-12.38,6.22-16.09.21-3.34-5.41-5.64-15.37-.09-20A9.48,9.48,0,0,1,382.34,174.35Z" style="fill:#e4897b"></path><path d="M376.89,171.64l-1.5-7.52s7.88-2.2,8.35,2c4.87,1.31,5.13,11.48-.15,16C379.81,180.18,378,171,378,171,377.63,171.19,377.27,171.41,376.89,171.64Z" style="fill:#263238"></path><path d="M386.65,179a6.44,6.44,0,0,1-1.88,4.6c-1.62,1.61-3.57.42-4.06-1.69-.44-1.9-.13-5,2-5.84A3,3,0,0,1,386.65,179Z" style="fill:#e4897b"></path><path d="M373,179.34c.18.53,0,1-.31,1.16s-.78-.23-.95-.76,0-1.05.31-1.16S372.83,178.81,373,179.34Z" style="fill:#263238"></path><path d="M367,181.26c.18.53,0,1.05-.31,1.17s-.78-.23-.95-.76,0-1.06.31-1.17S366.81,180.73,367,181.26Z" style="fill:#263238"></path><path d="M369,180.92a19.53,19.53,0,0,1-1.15,5.2,3.34,3.34,0,0,0,2.68-.38Z" style="fill:#de5753"></path><path d="M374,186.86a5.35,5.35,0,0,1-.68.27.16.16,0,0,1-.2-.11.17.17,0,0,1,.1-.21,4.37,4.37,0,0,0,2.9-2.74.16.16,0,0,1,.2-.11.16.16,0,0,1,.12.2A4.55,4.55,0,0,1,374,186.86Z" style="fill:#263238"></path><path d="M374.23,176.81a.33.33,0,0,1-.33,0,2.66,2.66,0,0,0-2.35-.4.33.33,0,1,1-.25-.61,3.28,3.28,0,0,1,3,.48.32.32,0,0,1,.09.45A.33.33,0,0,1,374.23,176.81Z" style="fill:#263238"></path><path d="M363.7,180a.36.36,0,0,1-.18,0,.35.35,0,0,1-.29-.37,3.29,3.29,0,0,1,1.67-2.48.34.34,0,0,1,.44.16.33.33,0,0,1-.15.44,2.49,2.49,0,0,0-1.3,2A.35.35,0,0,1,363.7,180Z" style="fill:#263238"></path><path d="M378,171s-12.38,6.9-17.8,3.66,0-6,0-6-1.71,1.9-.1,2.85c0,0,.36-5.33,5-7a3.87,3.87,0,0,0-.74,3.24,23.4,23.4,0,0,1,8.45-4.14C378.13,162.06,392.45,163.07,378,171Z" style="fill:#263238"></path><path d="M378.74,202.15s2.06,1.87,4.41,3.68c2.82-1.88,9.37-6.79,8.58-10.51-.55-1-3.49-1.39-3.49-1.39S385.61,198.35,378.74,202.15Z" style="fill:#9C0714"></path><path d="M378.74,202.15a20,20,0,0,0-3.37,4.61c-2.39-1.17-2.11-8.29-1.39-9.16a7.91,7.91,0,0,1,3.69-1.46A6.52,6.52,0,0,0,378.74,202.15Z" style="fill:#9C0714"></path><g style="opacity:0.5"><path d="M378.74,202.15s2.06,1.87,4.41,3.68c2.82-1.88,9.37-6.79,8.58-10.51-.55-1-3.49-1.39-3.49-1.39S385.61,198.35,378.74,202.15Z" style="fill:#fff"></path><path d="M378.74,202.15a20,20,0,0,0-3.37,4.61c-2.39-1.17-2.11-8.29-1.39-9.16a7.91,7.91,0,0,1,3.69-1.46A6.52,6.52,0,0,0,378.74,202.15Z" style="fill:#fff"></path></g><path d="M391.73,195.32a156.81,156.81,0,0,0,3.59,27.18v0c2.72,12.12,7.47,25.69,15.77,34.8,0,0,3.87,8.88,2.61,16.66,0,0,2.53-1,3-2.47s-6.85-19.07-8.63-32.45-2.79-43.76-2.79-43.76a44.68,44.68,0,0,0-9.18-.35C394.8,195,393.32,195.14,391.73,195.32Z" style="fill:#263238"></path><path d="M416.74,271.52c-.51,1.44-3,2.48-3,2.48,1.26-7.79-2.6-16.66-2.6-16.66-.53-.58-1-1.18-1.55-1.79-4.66-5.74-8.1-12.9-10.64-20.28a116.25,116.25,0,0,1-3.58-12.74v0c-.11-.47-.2-.93-.31-1.39a160.42,160.42,0,0,1-3.28-25.46c0-.21,0-.32,0-.32,1.6-.18,3.08-.29,4.43-.36a44,44,0,0,1,9.17.36s.24,7.06.68,15.86c0,.14,0,.26,0,.4.13,2.53.28,5.18.43,7.86h0c.3,5,.65,10,1.07,14.31.18,1.95.38,3.76.58,5.33C409.89,252.46,417.25,270.1,416.74,271.52Z" style="fill:#fff;opacity:0.2"></path><path d="M391.73,195.32a156.81,156.81,0,0,0,3.59,27.18v0l4.86-19.4-5.14-.49,5.14-3-4-4.66C394.8,195,393.32,195.14,391.73,195.32Z" style="fill:#263238"></path><path d="M368.43,276l1.32.95a432.58,432.58,0,0,1-1.14-47.48c0-1.31.09-2.57.14-3.77,1-22.95,4.54-27.12,4.77-27.37l-3.33,1.13-6,2.08C362.38,221.12,368.43,276,368.43,276Z" style="fill:#263238"></path><path d="M368.43,276l1.32.95a432.58,432.58,0,0,1-1.14-47.48c0-1.31.09-2.57.14-3.77,1-22.95,4.54-27.12,4.77-27.37l-3.33,1.13-6,2.08C362.38,221.12,368.43,276,368.43,276Z" style="fill:#fff;opacity:0.2"></path><path d="M369.94,206.37l-3.81,2.38s1,11.23,2.62,16.95c1-22.95,4.54-27.12,4.77-27.37l-3.33,1.13a22.19,22.19,0,0,0-4.53,5.89Z" style="fill:#263238"></path><path d="M404.25,211.91a19.89,19.89,0,0,0,2.2,7.53c-.15-2.67-.3-5.33-.43-7.86A4.18,4.18,0,0,0,404.25,211.91Z" style="opacity:0.2"></path><path d="M385.74,315.38l4.15-22.56-.8-11.93S383.41,301.59,385.74,315.38Z" style="opacity:0.2"></path><path d="M407.53,233.75q-.66.25-1.32.45a28,28,0,0,1-7.3,1.07,30.76,30.76,0,0,1-5.05-.28c-17.93-2.73-18.47-6.41-18.47-6.41s11.23-.75,16.56-4A9.56,9.56,0,0,0,395,221.1c3.38-5.81,5.18-15.79,5.18-15.79s1.38,1.23,3.28,3.17c.78.79,1.64,1.7,2.53,2.7,0,.14,0,.26,0,.4.13,2.53.28,5.18.43,7.86h0C406.76,224.44,407.11,229.47,407.53,233.75Z" style="opacity:0.1"></path><path d="M374.32,222.7l.2,4.55c-1.5,4.54-7,1.61-7,1.61l-3.22-.35a2.4,2.4,0,0,1-2-2.39l-.17-3.18a2.52,2.52,0,0,1,2.15-2.77l2.82-.17a4.9,4.9,0,0,1,2.39.46Z" style="fill:#e4897b"></path><path d="M405.33,195.32c10.73,3,1.85,36-2.08,37.08-7.45,2.08-29.73-2-29.73-2l0-8.7s21.45,2.1,23.26,1.3c2.34-1,3.47-13.5,4-19.38A10.88,10.88,0,0,1,405.33,195.32Z" style="fill:#263238"></path><path d="M405.33,195.32c10.73,3,1.85,36-2.08,37.08-7.45,2.08-29.73-2-29.73-2l0-8.7s21.45,2.1,23.26,1.3c2.34-1,3.47-13.5,4-19.38A10.88,10.88,0,0,1,405.33,195.32Z" style="fill:#fff;opacity:0.2"></path><path d="M363.7,241h0l-17.45,1.6a1.66,1.66,0,0,1-1.62-1.05l-9.35-25.23a1,1,0,0,1,.11-.93A.88.88,0,0,1,336,215l17.48-1.6a1.68,1.68,0,0,1,1.62,1.06l9.34,25.23A.88.88,0,0,1,363.7,241Z" style="fill:#263238"></path><path d="M363.7,241h0l-17.45,1.6a1.66,1.66,0,0,1-1.62-1.05l-9.35-25.23a1,1,0,0,1,.11-.93A.88.88,0,0,1,336,215l17.48-1.6a1.68,1.68,0,0,1,1.62,1.06l9.34,25.23A.88.88,0,0,1,363.7,241Z" style="fill:#fff;opacity:0.6000000000000001"></path><path d="M363.66,241l-17.45,1.6a1.66,1.66,0,0,1-1.62-1.05l-9.35-25.23a1,1,0,0,1,.11-.93l17.44-1.6a1.67,1.67,0,0,1,1.62,1.06l9.35,25.23A1,1,0,0,1,363.66,241Z" style="fill:#fff;opacity:0.2"></path><path d="M349.92,227.59a1.86,1.86,0,1,1-2.45-1.5A2,2,0,0,1,349.92,227.59Z" style="opacity:0.2"></path><path d="M338,230.17l1.87,4.08c3.25,3.95,6.42.93,6.42.93l2.46-.53c.84-.19,1.07-1.15.56-2.29L348,229.51a3.81,3.81,0,0,0-3-2.32l-2.36.06a2.81,2.81,0,0,0-1.74.57Z" style="fill:#e4897b"></path></g><g id="freepik--character-1--inject-141"><path d="M160.05,270l-.74-1.81a2.26,2.26,0,0,0-1.59-1.35l-3.34-.79a4.26,4.26,0,0,0-3.78.95l-.64.56c1,3.09,4.41,5.66,4.41,5.66l.88.85a1.89,1.89,0,0,0,2.69,0l1.69-1.73A2.18,2.18,0,0,0,160.05,270Z" style="fill:#ebb376"></path><path d="M120.1,235.84c4.82,7.29,9.39,14.73,13.86,22.24l-1.76-1.42c3.51,1.45,7,3,10.48,4.52,3,1.4,7.4,3.39,10.35,4.92a2,2,0,0,1-1.37,3.69c-7.29-1.8-14.83-4.09-21.95-6.41a3.26,3.26,0,0,1-1.77-1.42c-5-7.18-9.87-14.42-14.52-21.82a4,4,0,0,1,6.68-4.3Z" style="fill:#e9b376"></path><path d="M128.94,248,120,252.11l-1-1-3.83-3.83-.53-.53,3.47-17.21C124.33,233.45,128.94,248,128.94,248Z" style="fill:#263238"></path><path d="M119,251.13l-3.83-3.83a14.56,14.56,0,0,1,4.3-7A22,22,0,0,1,119,251.13Z" style="opacity:0.2"></path><path d="M91.92,231.45c-1.37,4.72-1.86,8.82-2.82,12.21-1.7,6-5.8,21.59-7.87,25.26l27.43,1.35C113,262.89,120,245,121,242.64a12,12,0,0,0-1-11.27,7.15,7.15,0,0,0-1.87-1.81c-1.08-.71-2.22-1.44-3.34-2.1a28.38,28.38,0,0,0-11.75-3.4C95.54,224.05,93,227.71,91.92,231.45Z" style="fill:#263238"></path><path d="M130.84,409.7l4.46-1.22c-1.64-22.47-6.05-49.58-9.79-69.91-.59-3.19-1.16-6.2-1.7-9-.27-1.33-.51-2.62-.76-3.85-1.19-6.09-2.19-10.91-2.81-13.88-.46-2.17-.72-3.37-.72-3.37l-16,4.65,1.33,4,4.41,13.32.5,1.53,2.91,8.8,4.95,15C118.29,378.7,130.84,409.7,130.84,409.7Z" style="fill:#ebb376"></path><path d="M92,408.61l4.6-.44c2.41-24.37,2.5-54.71,2.18-75.79-.06-3.27-.12-6.32-.18-9.09,0-.14,0-.27,0-.41-.13-5.49-.27-9.85-.37-12.61l-.14-3.35-16.58,1.85,1,6.9L84,325.81l.3,2,1,6.91,2.77,18.52C84.89,375.92,92,408.61,92,408.61Z" style="fill:#ebb376"></path><path d="M84,325.81l14.57-2.52c0-.14,0-.27,0-.41-.13-5.49-.27-9.85-.37-12.61l-15.69,5.4Z" style="isolation:isolate;opacity:0.2"></path><path d="M121.84,319.62l-15.33,2.6-1.67-5.07,15.4-5.32C120.63,313.72,121.19,316.37,121.84,319.62Z" style="isolation:isolate;opacity:0.2"></path><path d="M82.12,265s-9.94,23.23-.65,56.91l18.11-2.07V302.48l3.92,16.73,18.16-3.65C116.08,288.23,111,275.83,111,275.83l-.91-9.26Z" style="fill:#9C0714"></path><polygon points="90.97 271.23 105.93 271.84 105.93 267.21 90.97 266.56 90.97 271.23" style="fill:#263238"></polygon><polygon points="89.65 266.51 82.14 266.19 81.47 270.85 89.65 271.18 89.65 266.51" style="fill:#263238"></polygon><polygon points="107.08 267.25 107.08 271.89 110.44 272.03 110.44 267.4 107.08 267.25" style="fill:#263238"></polygon><path d="M104.55,267.55a2,2,0,0,0-1.34-.6l-3.53-.15a1.46,1.46,0,0,0-1.61,1.47v2.16a1.87,1.87,0,0,0,.57,1.3,2,2,0,0,0,1.19.59l.16,0,3.53.14a1.46,1.46,0,0,0,1.6-1.47v-2.15A1.91,1.91,0,0,0,104.55,267.55Zm-1.11,4.06-3.53-.14a.94.94,0,0,1-.65-.3.87.87,0,0,1-.28-.63v-2.16a.71.71,0,0,1,.78-.71l3.53.15h.08a1,1,0,0,1,.57.29.86.86,0,0,1,.27.63v.33a.33.33,0,0,0-.13,0l-1-.05a.51.51,0,0,0-.56.55.71.71,0,0,0,.65.61l1,.05h0v.71A.7.7,0,0,1,103.44,271.61Z" style="fill:#fff"></path><path d="M89.8,407.67c0-.57,7.12-.12,7.12-.12s4.37,4.44,8.61,5.44,1.88,3.55-2.87,3.55H90.92C87.55,416.54,89.66,413.67,89.8,407.67Z" style="fill:#263238"></path><path d="M100.65,409.37a9.07,9.07,0,0,1-2.94-.9.15.15,0,0,1-.06-.05h0l0,0a.23.23,0,0,1,0-.14c0-.08.63-1.73,1.59-2.13a1.1,1.1,0,0,1,.92,0c.32.15.48.35.47.6s-.53.75-1.11,1a2.93,2.93,0,0,1,1.59.18.75.75,0,0,1,.38.48.68.68,0,0,1-.17.76A1,1,0,0,1,100.65,409.37Zm-2.29-1c1,.44,2.35.83,2.68.56,0,0,.12-.1,0-.38a.43.43,0,0,0-.2-.25A4.67,4.67,0,0,0,98.36,408.35Zm1.27-2a.79.79,0,0,0-.29.06A3.18,3.18,0,0,0,98.12,408c1.06-.4,2.07-1,2.09-1.27,0-.1-.15-.19-.25-.24A.8.8,0,0,0,99.63,406.39Z" style="fill:#9C0714"></path><path d="M129.57,407.67c0-.57,7.12-.12,7.12-.12s4.37,4.44,8.62,5.44,1.87,3.55-2.87,3.55H130.7C127.32,416.54,129.43,413.67,129.57,407.67Z" style="fill:#263238"></path><path d="M140.43,409.37a9.22,9.22,0,0,1-3-.9l-.06-.05h0a.08.08,0,0,1,0,0,.17.17,0,0,1,0-.14c0-.08.62-1.73,1.58-2.13a1.1,1.1,0,0,1,.92,0c.33.15.48.35.47.6s-.53.75-1.11,1a3,3,0,0,1,1.6.18.75.75,0,0,1,.38.48.72.72,0,0,1-.17.76A1,1,0,0,1,140.43,409.37Zm-2.3-1c1.05.44,2.35.83,2.69.56,0,0,.12-.1,0-.38a.4.4,0,0,0-.2-.25A4.67,4.67,0,0,0,138.13,408.35Zm1.28-2a.72.72,0,0,0-.29.06A3.07,3.07,0,0,0,137.9,408c1-.4,2.07-1,2.09-1.27,0-.1-.16-.19-.26-.24A.79.79,0,0,0,139.41,406.39Z" style="fill:#9C0714"></path><path d="M99.58,302.48c3.1-6.4,5.26-11.66,5.26-11.66s.68,16.19-1.34,28.39Z" style="isolation:isolate;opacity:0.2"></path><rect x="165.37" y="251.13" width="10.9" height="18.54" transform="translate(-28.51 499.68) rotate(-106.94)" style="fill:#263238"></rect><rect x="165.37" y="251.13" width="10.9" height="18.54" transform="translate(-28.51 499.68) rotate(-106.94)" style="fill:#fff;opacity:0.1"></rect><rect x="162.77" y="263.18" width="18.55" height="2.49" transform="translate(-69.59 61.61) rotate(-16.94)" style="opacity:0.30000000000000004"></rect><circle cx="211.78" cy="246.77" r="33.89" transform="translate(-10.88 9.77) rotate(-2.58)" style="fill:#9C0714"></circle><circle cx="211.78" cy="246.77" r="33.89" transform="translate(-10.88 9.77) rotate(-2.58)" style="fill:#fff;opacity:0.8"></circle><path d="M246,242.39v16.05H187.33V223.31a33.65,33.65,0,0,1,14.58-8.95,36,36,0,0,1,3.62-.89H218a33.89,33.89,0,0,1,26.16,23.42,34.55,34.55,0,0,1,1.09,4.8h0Z" style="opacity:0.2"></path><polygon points="246.02 242.39 246.02 258.44 187.33 258.44 187.33 252.32 206.09 236.86 216.67 246.56 234.51 231.49 245.29 241.69 245.29 241.7 246.02 242.39" style="fill:#fff;opacity:0.4"></polygon><path d="M206,226.48a5.34,5.34,0,1,1-5.33-5.33A5.33,5.33,0,0,1,206,226.48Z" style="fill:#fff;opacity:0.4"></path><path d="M237.65,268.66a30.64,30.64,0,0,1-2.34,2.5h-48v-2.5Z" style="opacity:0.2"></path><path d="M230,275.36a32.77,32.77,0,0,1-4.73,2.5h-27a32.67,32.67,0,0,1-4.71-2.5Z" style="opacity:0.2"></path><path d="M185,267.35l-.08.07c-.37-.48-.73-1-1.07-1.47,7.49-6.24,39.18-4.95,44.47-.78a.9.9,0,1,1-1.12,1.42C222.59,263,191.7,261.75,185,267.35Z" style="fill:#9C0714"></path><path d="M232.53,265.53c-.69,4.25-12.3,8-22.79,9.75a79.2,79.2,0,0,1-12.36,1.08c-.75,0-1.48,0-2.2-.05-.54-.3-1.07-.61-1.59-.95s-1.11-.73-1.65-1.13a62.54,62.54,0,0,0,17.5-.75c12.26-2,20.92-5.88,21.3-8.24.12-.72-.82-1.38-1.62-1.81a.92.92,0,0,1-.38-1.23.91.91,0,0,1,1.23-.37C232.39,263.1,232.7,264.55,232.53,265.53Z" style="fill:#9C0714"></path><path d="M241.27,230.06l-9.43.2h0a.92.92,0,0,1-.91-.89.91.91,0,0,1,.9-.92l8.36-.19C240.56,228.85,240.93,229.45,241.27,230.06Z" style="fill:#9C0714"></path><path d="M243,233.51h-5.14a.91.91,0,1,1,0-1.82h4.3C242.43,232.28,242.71,232.89,243,233.51Z" style="fill:#9C0714"></path><path d="M201.83,214.64a36.39,36.39,0,1,0,45.41,24.21A36.39,36.39,0,0,0,201.83,214.64Zm1.26,4.13a32.08,32.08,0,1,1-21.34,40A32.08,32.08,0,0,1,203.09,218.77Z" style="fill:#263238"></path><path d="M201.83,214.64a36.39,36.39,0,1,0,45.41,24.21A36.39,36.39,0,0,0,201.83,214.64Zm1.26,4.13a32.08,32.08,0,1,1-21.34,40A32.08,32.08,0,0,1,203.09,218.77Z" style="fill:#fff;opacity:0.1"></path><path d="M200.87,211.48a36.39,36.39,0,1,0,45.41,24.2A36.39,36.39,0,0,0,200.87,211.48Zm1.25,4.12a32.08,32.08,0,1,1-21.33,40A32.08,32.08,0,0,1,202.12,215.6Z" style="fill:#263238"></path><path d="M200.87,211.48a36.39,36.39,0,1,0,45.41,24.2A36.39,36.39,0,0,0,200.87,211.48Zm1.25,4.12a32.08,32.08,0,1,1-21.33,40A32.08,32.08,0,0,1,202.12,215.6Z" style="fill:#fff;opacity:0.30000000000000004"></path><path d="M103.4,280.94h0a7.27,7.27,0,0,0,9.07,4.84l52.27-15.92a2.38,2.38,0,0,0,1.57-3l-2.86-9.38a2.37,2.37,0,0,0-2.95-1.58l-52.27,15.92A7.28,7.28,0,0,0,103.4,280.94Z" style="fill:#263238"></path><path d="M103.4,280.94h0a7.27,7.27,0,0,0,9.07,4.84l52.27-15.92a2.38,2.38,0,0,0,1.57-3l-2.86-9.38a2.37,2.37,0,0,0-2.95-1.58l-52.27,15.92A7.28,7.28,0,0,0,103.4,280.94Z" style="fill:#fff;opacity:0.30000000000000004"></path><path d="M103.14,279.72a5.77,5.77,0,0,0,.26,1.22,7.26,7.26,0,0,0,9.07,4.83l52.27-15.92a2.36,2.36,0,0,0,1.57-3l-.72-2.37a2.37,2.37,0,0,1-1.58,3L111.75,283.4A7.26,7.26,0,0,1,103.14,279.72Z" style="opacity:0.30000000000000004"></path><path d="M108.68,275.59A2.36,2.36,0,1,0,112,277,2.57,2.57,0,0,0,108.68,275.59Z" style="opacity:0.30000000000000004"></path><path d="M222.27,226.92c-3.2,2.18-3.47,7.33-.62,11.51s7.74,5.81,10.94,3.63,3.47-7.33.62-11.51S225.46,224.75,222.27,226.92Z" style="fill:#fff;opacity:0.4"></path><path d="M217.25,239.78a2,2,0,1,0,2.3.76A1.75,1.75,0,0,0,217.25,239.78Z" style="fill:#fff;opacity:0.4"></path><path d="M117.41,225.08a12,12,0,0,0-1.85,1.7c-1.34,1.59-1.9,3.59-.1,6.25,0,0,.53,1.86-3.27,2.71C109.75,227,106.71,225,106.71,225c1.82-.1,3.7-1.73,5.36-3.76a32.66,32.66,0,0,0,2.8-4.09c.4-.67.75-1.31,1-1.89l.31,2Z" style="fill:#ebb376"></path><path d="M117.41,225.08a12,12,0,0,0-1.85,1.7,12.31,12.31,0,0,1-3.49-5.57,32.66,32.66,0,0,0,2.8-4.09c.45,0,.9.08,1.36.14Z" style="opacity:0.2"></path><path d="M119.17,201.39s4.91-5.65-1-10.39-17.49-2.6-19.63,8.1.81,15.22.81,15.22,0-6.81,2-8.8a14.55,14.55,0,0,0,0,5.22c.59,2,0,.72,0,.72s1.81-8.54,10.53-6.09S119.17,201.39,119.17,201.39Z" style="fill:#263238"></path><path d="M123.94,202.25c6.47,2,7.5,6.08,5.94,12.89-1.95,8.52-5.61,13.88-13.16,9.63C106.47,219,113.19,199,123.94,202.25Z" style="fill:#ebb376"></path><path d="M125.8,213.5a14,14,0,0,0,1.07,3.26,1.87,1.87,0,0,1-1.93.21Z" style="fill:#d58745"></path><path d="M122,211.77c-.15.53-.56.88-.92.78s-.52-.61-.37-1.15.56-.88.92-.78S122.15,211.23,122,211.77Z" style="fill:#263238"></path><path d="M121.47,210.6l1.29-.13S121.91,211.29,121.47,210.6Z" style="fill:#263238"></path><path d="M128.69,213.52c-.15.53-.56.88-.92.78s-.52-.61-.37-1.15.56-.88.91-.78S128.84,213,128.69,213.52Z" style="fill:#263238"></path><path d="M128.16,212.35l1.29-.13S128.6,213,128.16,212.35Z" style="fill:#263238"></path><path d="M120.19,207.68a.28.28,0,0,1-.23-.12.29.29,0,0,1,.08-.39,3.8,3.8,0,0,1,3.38-.15.27.27,0,0,1,.13.37.28.28,0,0,1-.37.14,3.25,3.25,0,0,0-2.83.1A.3.3,0,0,1,120.19,207.68Z" style="fill:#263238"></path><path d="M130.5,210a.26.26,0,0,1-.21-.11,2.85,2.85,0,0,0-2.19-1.21.28.28,0,0,1,0-.56,3.37,3.37,0,0,1,2.65,1.42.27.27,0,0,1,0,.39A.24.24,0,0,1,130.5,210Z" style="fill:#263238"></path><path d="M113.54,211s4.64-4.39,5.44-8.64c0,0,14.42-1.32,11.08,11.89,0,0,4.78-11.18-6.27-14.83s-16,12.64-11.69,19.24C112.1,218.66,110.65,213.76,113.54,211Z" style="fill:#263238"></path><path d="M123.44,219.89h0a3.57,3.57,0,0,1-3.57-3,.27.27,0,0,1,.24-.31.28.28,0,0,1,.31.24,3,3,0,0,0,3,2.55.28.28,0,0,1,0,.56Z" style="fill:#263238"></path><path d="M112.42,209.71a.18.18,0,0,0,.1.21l0,0,6.59,1.53a2.87,2.87,0,0,0,1.66,3.06,3.47,3.47,0,0,0,4.43-1.2,2.69,2.69,0,0,0,.19-.43,1.12,1.12,0,0,1,.85-.25.57.57,0,0,1,.34.39,2.88,2.88,0,0,0,1.67,3,3.45,3.45,0,0,0,4.42-1.2,2.81,2.81,0,0,0-1.32-4,3.46,3.46,0,0,0-4.43,1.2,3.36,3.36,0,0,0-.2.43.65.65,0,0,0-.33-.21,1.2,1.2,0,0,0-.86.08,2.85,2.85,0,0,0-1.66-3,3.46,3.46,0,0,0-4.43,1.19,3.53,3.53,0,0,0-.25.57l-6.56-1.52A.2.2,0,0,0,112.42,209.71Zm14.91,2.55a3,3,0,0,1,3.86-1,2.45,2.45,0,0,1,1.16,3.49,3,3,0,0,1-3.86,1.05A2.45,2.45,0,0,1,127.33,212.26Zm-7.48-1.55a3,3,0,0,1,3.86-1.05,2.45,2.45,0,0,1,1.16,3.49,3,3,0,0,1-3.86,1A2.45,2.45,0,0,1,119.85,210.71Z" style="fill:#263238"></path><g style="isolation:isolate;opacity:0.30000000000000004"><path d="M112.42,209.71a.18.18,0,0,0,.1.21l0,0,6.59,1.53a2.87,2.87,0,0,0,1.66,3.06,3.47,3.47,0,0,0,4.43-1.2,2.69,2.69,0,0,0,.19-.43,1.12,1.12,0,0,1,.85-.25.57.57,0,0,1,.34.39,2.88,2.88,0,0,0,1.67,3,3.45,3.45,0,0,0,4.42-1.2,2.81,2.81,0,0,0-1.32-4,3.46,3.46,0,0,0-4.43,1.2,3.36,3.36,0,0,0-.2.43.65.65,0,0,0-.33-.21,1.2,1.2,0,0,0-.86.08,2.85,2.85,0,0,0-1.66-3,3.46,3.46,0,0,0-4.43,1.19,3.53,3.53,0,0,0-.25.57l-6.56-1.52A.2.2,0,0,0,112.42,209.71Zm14.91,2.55a3,3,0,0,1,3.86-1,2.45,2.45,0,0,1,1.16,3.49,3,3,0,0,1-3.86,1.05A2.45,2.45,0,0,1,127.33,212.26Zm-7.48-1.55a3,3,0,0,1,3.86-1.05,2.45,2.45,0,0,1,1.16,3.49,3,3,0,0,1-3.86,1A2.45,2.45,0,0,1,119.85,210.71Z" style="fill:#fff"></path></g><path d="M114.18,212.69a3,3,0,0,0-2.27-3.52c-2.07-.4-4.28,3.43.4,5.94C113,215.47,113.6,214.89,114.18,212.69Z" style="fill:#ebb376"></path><path d="M93,234.08s-2.52,14.16,6,21.49,8.46-13.94,6.5-20.93C104,229.29,93,234.08,93,234.08Z" style="opacity:0.2"></path><path d="M125,281.5l.06-1.95a2.26,2.26,0,0,0-.9-1.88l-2.73-2.08a4.24,4.24,0,0,0-3.83-.67l-.82.25c-.32,3.23,1.72,7,1.72,7l.46,1.13a1.9,1.9,0,0,0,2.46,1.1l2.25-.89A2.18,2.18,0,0,0,125,281.5Z" style="fill:#ebb376"></path><path d="M102.43,234c1.44,8.62,2.58,17.28,3.61,26l-1-2q3.93,4.15,7.74,8.41c2.21,2.52,5.38,6.11,7.44,8.7a2,2,0,0,1-2.75,2.81c-5.92-4.61-11.87-9.77-17.44-14.79a3.32,3.32,0,0,1-1-2c-1.63-8.58-3.15-17.19-4.37-25.84a4,4,0,0,1,7.84-1.21Z" style="fill:#e9b376"></path><path d="M100.53,225.56c-5,.55-9.1,2.72-6.93,18.19l12.25-.63S106.44,224.9,100.53,225.56Z" style="fill:#263238"></path></g></svg>
